<mxfile host="Electron" modified="2023-10-15T15:22:12.148Z" agent="Mozilla/5.0 (Windows NT 10.0; Win64; x64) AppleWebKit/537.36 (KHTML, like Gecko) draw.io/21.6.8 Chrome/114.0.5735.289 Electron/25.5.0 Safari/537.36" etag="Lzp4Hw6JXS4ov_JxFo1v" version="21.6.8" type="device">
  <diagram name="Страница — 1" id="KP5ABt8MgDtNz9owwMte">
    <mxGraphModel dx="473" dy="276" grid="1" gridSize="10" guides="1" tooltips="1" connect="1" arrows="1" fold="1" page="1" pageScale="1" pageWidth="827" pageHeight="1169" math="0" shadow="0">
      <root>
        <mxCell id="0" />
        <mxCell id="1" parent="0" />
        <mxCell id="loeBcmVhwhOljXZaUw20-4" value="{&#39;1&#39; ... &#39;9&#39;}" style="edgeStyle=orthogonalEdgeStyle;rounded=0;orthogonalLoop=1;jettySize=auto;html=1;" parent="1" source="loeBcmVhwhOljXZaUw20-1" edge="1">
          <mxGeometry x="-0.005" relative="1" as="geometry">
            <mxPoint x="200" y="240" as="targetPoint" />
            <mxPoint as="offset" />
          </mxGeometry>
        </mxCell>
        <mxCell id="loeBcmVhwhOljXZaUw20-1" value="1" style="ellipse;whiteSpace=wrap;html=1;aspect=fixed;fontSize=27;" parent="1" vertex="1">
          <mxGeometry x="40" y="200" width="80" height="80" as="geometry" />
        </mxCell>
        <mxCell id="loeBcmVhwhOljXZaUw20-2" value="" style="endArrow=classic;html=1;rounded=0;entryX=0.5;entryY=0;entryDx=0;entryDy=0;" parent="1" target="loeBcmVhwhOljXZaUw20-1" edge="1">
          <mxGeometry width="50" height="50" relative="1" as="geometry">
            <mxPoint x="80" y="130" as="sourcePoint" />
            <mxPoint x="170" y="230" as="targetPoint" />
          </mxGeometry>
        </mxCell>
        <mxCell id="loeBcmVhwhOljXZaUw20-6" value="" style="edgeStyle=orthogonalEdgeStyle;rounded=0;orthogonalLoop=1;jettySize=auto;html=1;" parent="1" target="loeBcmVhwhOljXZaUw20-5" edge="1">
          <mxGeometry relative="1" as="geometry">
            <mxPoint x="280" y="240" as="sourcePoint" />
          </mxGeometry>
        </mxCell>
        <mxCell id="loeBcmVhwhOljXZaUw20-5" value="" style="ellipse;whiteSpace=wrap;html=1;aspect=fixed;" parent="1" vertex="1">
          <mxGeometry x="360" y="200" width="80" height="80" as="geometry" />
        </mxCell>
        <mxCell id="loeBcmVhwhOljXZaUw20-7" value="{&#39;0&#39; ... &#39;9&#39;}" style="edgeStyle=orthogonalEdgeStyle;rounded=0;orthogonalLoop=1;jettySize=auto;html=1;" parent="1" edge="1">
          <mxGeometry relative="1" as="geometry">
            <mxPoint x="280" y="239.88" as="sourcePoint" />
            <mxPoint x="360" y="239.88" as="targetPoint" />
            <mxPoint as="offset" />
          </mxGeometry>
        </mxCell>
        <mxCell id="loeBcmVhwhOljXZaUw20-8" value="" style="edgeStyle=orthogonalEdgeStyle;rounded=0;orthogonalLoop=1;jettySize=auto;html=1;" parent="1" target="loeBcmVhwhOljXZaUw20-9" edge="1">
          <mxGeometry relative="1" as="geometry">
            <mxPoint x="440" y="240" as="sourcePoint" />
          </mxGeometry>
        </mxCell>
        <mxCell id="loeBcmVhwhOljXZaUw20-9" value="" style="ellipse;whiteSpace=wrap;html=1;aspect=fixed;" parent="1" vertex="1">
          <mxGeometry x="520" y="200" width="80" height="80" as="geometry" />
        </mxCell>
        <mxCell id="loeBcmVhwhOljXZaUw20-10" value="{&#39;0&#39; ... &#39;9&#39;}" style="edgeStyle=orthogonalEdgeStyle;rounded=0;orthogonalLoop=1;jettySize=auto;html=1;" parent="1" edge="1">
          <mxGeometry relative="1" as="geometry">
            <mxPoint x="440" y="239.88" as="sourcePoint" />
            <mxPoint x="520" y="239.88" as="targetPoint" />
            <mxPoint as="offset" />
          </mxGeometry>
        </mxCell>
        <mxCell id="DGZ9ui3MifXTIUytiWzM-2" value="" style="edgeStyle=orthogonalEdgeStyle;rounded=0;orthogonalLoop=1;jettySize=auto;html=1;exitX=0.5;exitY=0;exitDx=0;exitDy=0;curved=1;entryX=0;entryY=0.5;entryDx=0;entryDy=0;fillColor=#f8cecc;strokeColor=#b85450;" parent="1" source="loeBcmVhwhOljXZaUw20-11" target="DGZ9ui3MifXTIUytiWzM-1" edge="1">
          <mxGeometry x="0.6923" y="-70" relative="1" as="geometry">
            <mxPoint x="410" y="140" as="targetPoint" />
            <mxPoint as="offset" />
          </mxGeometry>
        </mxCell>
        <mxCell id="DGZ9ui3MifXTIUytiWzM-6" value="L/{&#39;0&#39; ... &#39;9&#39;}" style="edgeLabel;html=1;align=center;verticalAlign=middle;resizable=0;points=[];" parent="DGZ9ui3MifXTIUytiWzM-2" vertex="1" connectable="0">
          <mxGeometry x="-0.3286" y="-17" relative="1" as="geometry">
            <mxPoint as="offset" />
          </mxGeometry>
        </mxCell>
        <mxCell id="loeBcmVhwhOljXZaUw20-11" value="2" style="ellipse;whiteSpace=wrap;html=1;aspect=fixed;fontSize=27;" parent="1" vertex="1">
          <mxGeometry x="200" y="200" width="80" height="80" as="geometry" />
        </mxCell>
        <mxCell id="DGZ9ui3MifXTIUytiWzM-3" value="" style="edgeStyle=orthogonalEdgeStyle;rounded=0;orthogonalLoop=1;jettySize=auto;html=1;curved=1;entryX=0.5;entryY=1;entryDx=0;entryDy=0;fillColor=#f8cecc;strokeColor=#b85450;" parent="1" source="loeBcmVhwhOljXZaUw20-12" target="DGZ9ui3MifXTIUytiWzM-1" edge="1">
          <mxGeometry relative="1" as="geometry" />
        </mxCell>
        <mxCell id="DGZ9ui3MifXTIUytiWzM-7" value="L/{&#39;0&#39; ... &#39;9&#39;}" style="edgeLabel;html=1;align=center;verticalAlign=middle;resizable=0;points=[];" parent="DGZ9ui3MifXTIUytiWzM-3" vertex="1" connectable="0">
          <mxGeometry x="0.2695" y="-2" relative="1" as="geometry">
            <mxPoint as="offset" />
          </mxGeometry>
        </mxCell>
        <mxCell id="loeBcmVhwhOljXZaUw20-12" value="3" style="ellipse;whiteSpace=wrap;html=1;aspect=fixed;fontSize=27;" parent="1" vertex="1">
          <mxGeometry x="360" y="200" width="80" height="80" as="geometry" />
        </mxCell>
        <mxCell id="loeBcmVhwhOljXZaUw20-15" value="" style="edgeStyle=orthogonalEdgeStyle;rounded=0;orthogonalLoop=1;jettySize=auto;html=1;" parent="1" source="loeBcmVhwhOljXZaUw20-13" edge="1">
          <mxGeometry relative="1" as="geometry">
            <mxPoint x="680" y="240" as="targetPoint" />
          </mxGeometry>
        </mxCell>
        <mxCell id="DGZ9ui3MifXTIUytiWzM-4" style="edgeStyle=orthogonalEdgeStyle;rounded=0;orthogonalLoop=1;jettySize=auto;html=1;exitX=0.5;exitY=0;exitDx=0;exitDy=0;curved=1;entryX=1;entryY=0.5;entryDx=0;entryDy=0;fillColor=#f8cecc;strokeColor=#b85450;" parent="1" source="loeBcmVhwhOljXZaUw20-13" target="DGZ9ui3MifXTIUytiWzM-1" edge="1">
          <mxGeometry relative="1" as="geometry" />
        </mxCell>
        <mxCell id="DGZ9ui3MifXTIUytiWzM-8" value="L/{&#39;0&#39; ... &#39;9&#39;}" style="edgeLabel;html=1;align=center;verticalAlign=middle;resizable=0;points=[];" parent="DGZ9ui3MifXTIUytiWzM-4" vertex="1" connectable="0">
          <mxGeometry x="-0.3579" y="13" relative="1" as="geometry">
            <mxPoint as="offset" />
          </mxGeometry>
        </mxCell>
        <mxCell id="loeBcmVhwhOljXZaUw20-13" value="4" style="ellipse;whiteSpace=wrap;html=1;aspect=fixed;fontSize=27;" parent="1" vertex="1">
          <mxGeometry x="520" y="200" width="80" height="80" as="geometry" />
        </mxCell>
        <mxCell id="loeBcmVhwhOljXZaUw20-24" value="L/{&#39;0&#39; ... &#39;9&#39;}" style="edgeStyle=orthogonalEdgeStyle;rounded=0;orthogonalLoop=1;jettySize=auto;html=1;entryX=0.5;entryY=0;entryDx=0;entryDy=0;exitX=0.5;exitY=1;exitDx=0;exitDy=0;" parent="1" source="DGZ9ui3MifXTIUytiWzM-12" target="DGZ9ui3MifXTIUytiWzM-9" edge="1">
          <mxGeometry relative="1" as="geometry">
            <Array as="points" />
            <mxPoint x="720" y="280" as="sourcePoint" />
            <mxPoint x="720" y="319.97507788161994" as="targetPoint" />
          </mxGeometry>
        </mxCell>
        <mxCell id="loeBcmVhwhOljXZaUw20-16" value="{&#39;0&#39; ... &#39;9&#39;}" style="edgeStyle=orthogonalEdgeStyle;rounded=0;orthogonalLoop=1;jettySize=auto;html=1;entryX=0;entryY=0.5;entryDx=0;entryDy=0;" parent="1" target="DGZ9ui3MifXTIUytiWzM-12" edge="1">
          <mxGeometry relative="1" as="geometry">
            <mxPoint x="600" y="239.70999999999998" as="sourcePoint" />
            <mxPoint x="680" y="239.70999999999998" as="targetPoint" />
            <mxPoint as="offset" />
          </mxGeometry>
        </mxCell>
        <mxCell id="loeBcmVhwhOljXZaUw20-23" value="L/{&#39;1&#39; ... &#39;9&#39;}" style="endArrow=classic;html=1;rounded=0;exitX=0.5;exitY=1;exitDx=0;exitDy=0;entryX=0;entryY=0.5;entryDx=0;entryDy=0;" parent="1" source="loeBcmVhwhOljXZaUw20-1" target="loeBcmVhwhOljXZaUw20-1" edge="1">
          <mxGeometry x="-0.4286" width="50" height="50" relative="1" as="geometry">
            <mxPoint x="170" y="290" as="sourcePoint" />
            <mxPoint x="20" y="240" as="targetPoint" />
            <Array as="points">
              <mxPoint x="80" y="290" />
              <mxPoint x="20" y="290" />
              <mxPoint x="20" y="280" />
              <mxPoint x="20" y="260" />
              <mxPoint x="20" y="240" />
            </Array>
            <mxPoint as="offset" />
          </mxGeometry>
        </mxCell>
        <mxCell id="DGZ9ui3MifXTIUytiWzM-1" value="E" style="ellipse;whiteSpace=wrap;html=1;aspect=fixed;fontSize=27;fillColor=#f8cecc;strokeColor=#b85450;" parent="1" vertex="1">
          <mxGeometry x="360" y="20" width="80" height="80" as="geometry" />
        </mxCell>
        <mxCell id="DGZ9ui3MifXTIUytiWzM-10" value="" style="group" parent="1" vertex="1" connectable="0">
          <mxGeometry x="680" y="370" width="80" height="80" as="geometry" />
        </mxCell>
        <mxCell id="DGZ9ui3MifXTIUytiWzM-9" value="" style="ellipse;whiteSpace=wrap;html=1;aspect=fixed;" parent="DGZ9ui3MifXTIUytiWzM-10" vertex="1">
          <mxGeometry width="80" height="80" as="geometry" />
        </mxCell>
        <mxCell id="loeBcmVhwhOljXZaUw20-19" value="6" style="ellipse;whiteSpace=wrap;html=1;aspect=fixed;fontSize=27;gradientColor=none;" parent="DGZ9ui3MifXTIUytiWzM-10" vertex="1">
          <mxGeometry x="5" y="5" width="70" height="70" as="geometry" />
        </mxCell>
        <mxCell id="DGZ9ui3MifXTIUytiWzM-16" value="" style="edgeStyle=orthogonalEdgeStyle;rounded=0;orthogonalLoop=1;jettySize=auto;html=1;entryX=0.5;entryY=1;entryDx=0;entryDy=0;" parent="DGZ9ui3MifXTIUytiWzM-10" target="DGZ9ui3MifXTIUytiWzM-9" edge="1">
          <mxGeometry relative="1" as="geometry">
            <mxPoint x="80" y="40" as="sourcePoint" />
            <mxPoint x="190" y="40" as="targetPoint" />
            <Array as="points">
              <mxPoint x="100" y="40" />
              <mxPoint x="100" y="100" />
              <mxPoint x="40" y="100" />
            </Array>
          </mxGeometry>
        </mxCell>
        <mxCell id="DGZ9ui3MifXTIUytiWzM-17" value="L/{&#39;1&#39; ... &#39;9&#39;}" style="edgeLabel;html=1;align=center;verticalAlign=middle;resizable=0;points=[];" parent="DGZ9ui3MifXTIUytiWzM-16" vertex="1" connectable="0">
          <mxGeometry x="-0.2808" y="1" relative="1" as="geometry">
            <mxPoint as="offset" />
          </mxGeometry>
        </mxCell>
        <mxCell id="DGZ9ui3MifXTIUytiWzM-11" value="" style="group" parent="1" vertex="1" connectable="0">
          <mxGeometry x="680" y="200" width="80" height="80" as="geometry" />
        </mxCell>
        <mxCell id="DGZ9ui3MifXTIUytiWzM-12" value="" style="ellipse;whiteSpace=wrap;html=1;aspect=fixed;" parent="DGZ9ui3MifXTIUytiWzM-11" vertex="1">
          <mxGeometry width="80" height="80" as="geometry" />
        </mxCell>
        <mxCell id="DGZ9ui3MifXTIUytiWzM-13" value="5" style="ellipse;whiteSpace=wrap;html=1;aspect=fixed;fontSize=27;gradientColor=none;" parent="DGZ9ui3MifXTIUytiWzM-11" vertex="1">
          <mxGeometry x="5" y="5" width="70" height="70" as="geometry" />
        </mxCell>
        <mxCell id="loeBcmVhwhOljXZaUw20-18" value="{&#39;0&#39; ... &#39;9&#39;}" style="edgeStyle=orthogonalEdgeStyle;rounded=0;orthogonalLoop=1;jettySize=auto;html=1;entryX=1;entryY=0.5;entryDx=0;entryDy=0;exitX=0.5;exitY=0;exitDx=0;exitDy=0;" parent="DGZ9ui3MifXTIUytiWzM-11" source="DGZ9ui3MifXTIUytiWzM-12" target="DGZ9ui3MifXTIUytiWzM-12" edge="1">
          <mxGeometry x="-0.3757" relative="1" as="geometry">
            <mxPoint x="80" y="40" as="targetPoint" />
            <Array as="points">
              <mxPoint x="40" y="-20" />
              <mxPoint x="100" y="-20" />
              <mxPoint x="100" y="40" />
            </Array>
            <mxPoint as="offset" />
            <mxPoint x="40" as="sourcePoint" />
          </mxGeometry>
        </mxCell>
        <mxCell id="DGZ9ui3MifXTIUytiWzM-20" value="" style="edgeStyle=orthogonalEdgeStyle;rounded=0;orthogonalLoop=1;jettySize=auto;html=1;entryX=0.5;entryY=1;entryDx=0;entryDy=0;" parent="1" target="loeBcmVhwhOljXZaUw20-11" edge="1">
          <mxGeometry relative="1" as="geometry">
            <mxPoint x="680" y="410" as="sourcePoint" />
            <mxPoint x="569.9999999999998" y="410" as="targetPoint" />
          </mxGeometry>
        </mxCell>
        <mxCell id="DGZ9ui3MifXTIUytiWzM-21" value="{&#39;1&#39; ... &#39;9&#39;}" style="edgeLabel;html=1;align=center;verticalAlign=middle;resizable=0;points=[];" parent="DGZ9ui3MifXTIUytiWzM-20" vertex="1" connectable="0">
          <mxGeometry x="-0.1861" y="-2" relative="1" as="geometry">
            <mxPoint as="offset" />
          </mxGeometry>
        </mxCell>
      </root>
    </mxGraphModel>
  </diagram>
</mxfile>
